<?xml version="1.0" standalone="no"?>
<!DOCTYPE svg PUBLIC "-//W3C//DTD SVG 20010904//EN"
 "http://www.w3.org/TR/2001/REC-SVG-20010904/DTD/svg10.dtd">
<svg version="1.0" xmlns="http://www.w3.org/2000/svg"
 width="200.000000pt" height="178.000000pt" viewBox="0 0 200.000000 178.000000"
 preserveAspectRatio="xMidYMid meet">

<g transform="translate(0.000000,178.000000) scale(0.100000,-0.100000)"
fill="#000000" stroke="none">
<path d="M195 1676 c-37 -16 -70 -52 -84 -89 -7 -18 -11 -166 -11 -416 0 -386
0 -388 22 -421 51 -75 50 -75 337 -78 l257 -3 -7 -57 c-9 -78 -35 -136 -75
-172 -28 -25 -44 -30 -83 -30 -48 0 -70 -17 -55 -41 3 -5 167 -9 384 -9 387 0
395 1 383 38 -3 7 -24 12 -56 12 -39 1 -59 6 -78 23 -39 32 -69 99 -78 172
l-7 64 255 3 c289 3 290 4 337 83 l25 43 -3 389 -3 389 -27 41 c-50 76 -16 73
-750 73 -522 -1 -659 -3 -683 -14z m1339 -70 c52 -22 56 -45 56 -362 l0 -284
-710 0 -710 0 0 296 c0 281 1 297 20 324 11 16 30 31 43 33 12 2 302 5 645 6
512 1 629 -1 656 -13z m56 -741 c0 -53 -23 -100 -57 -114 -21 -9 -188 -11
-672 -9 l-643 3 -24 30 c-18 22 -24 42 -24 78 l0 47 710 0 710 0 0 -35z m-600
-227 c0 -48 25 -131 53 -183 l26 -45 -191 0 -190 0 22 35 c27 44 50 126 50
183 l0 42 115 0 115 0 0 -32z"/>
<path d="M700 1210 l0 -180 35 0 35 0 0 180 0 180 -35 0 -35 0 0 -180z"/>
<path d="M820 1360 l0 -30 60 0 60 0 0 -150 0 -150 30 0 30 0 0 150 0 150 60
0 60 0 0 30 0 30 -150 0 -150 0 0 -30z"/>
<path d="M862 841 c-21 -13 -10 -46 16 -49 27 -4 40 22 22 43 -14 17 -20 18
-38 6z"/>
<path d="M190 208 c-12 -46 -25 -91 -27 -100 -5 -17 34 -18 715 -18 l721 0 -9
27 c-5 16 -18 61 -30 100 l-21 73 -663 0 -663 0 -23 -82z"/>
<path d="M1714 166 c-19 -19 -34 -43 -34 -55 0 -20 5 -21 115 -21 74 0 115 4
115 10 0 21 -30 69 -52 84 -12 9 -42 16 -66 16 -37 0 -50 -6 -78 -34z"/>
</g>
</svg>
